<mxfile host="app.diagrams.net" modified="2021-02-01T14:01:56.529Z" agent="5.0 (Windows)" etag="pwlqKu3td6dtZVBBjRFC" version="14.2.7" type="github">
  <diagram id="R2lEEEUBdFMjLlhIrx00" name="Page-1">
    <mxGraphModel dx="1052" dy="601" grid="1" gridSize="10" guides="1" tooltips="1" connect="1" arrows="1" fold="1" page="1" pageScale="1" pageWidth="850" pageHeight="1100" math="0" shadow="0" extFonts="Permanent Marker^https://fonts.googleapis.com/css?family=Permanent+Marker">
      <root>
        <mxCell id="0" />
        <mxCell id="1" parent="0" />
        <mxCell id="qp9gyoNSPPs4CYKaGDF8-27" value="Users" style="shape=table;startSize=30;container=1;collapsible=1;childLayout=tableLayout;fixedRows=1;rowLines=0;fontStyle=1;align=center;resizeLast=1;" vertex="1" parent="1">
          <mxGeometry x="80" y="80" width="180" height="180" as="geometry" />
        </mxCell>
        <mxCell id="qp9gyoNSPPs4CYKaGDF8-28" value="" style="shape=partialRectangle;collapsible=0;dropTarget=0;pointerEvents=0;fillColor=none;top=0;left=0;bottom=1;right=0;points=[[0,0.5],[1,0.5]];portConstraint=eastwest;" vertex="1" parent="qp9gyoNSPPs4CYKaGDF8-27">
          <mxGeometry y="30" width="180" height="30" as="geometry" />
        </mxCell>
        <mxCell id="qp9gyoNSPPs4CYKaGDF8-29" value="PK" style="shape=partialRectangle;connectable=0;fillColor=none;top=0;left=0;bottom=0;right=0;fontStyle=1;overflow=hidden;" vertex="1" parent="qp9gyoNSPPs4CYKaGDF8-28">
          <mxGeometry width="30" height="30" as="geometry" />
        </mxCell>
        <mxCell id="qp9gyoNSPPs4CYKaGDF8-30" value="id" style="shape=partialRectangle;connectable=0;fillColor=none;top=0;left=0;bottom=0;right=0;align=left;spacingLeft=6;fontStyle=5;overflow=hidden;" vertex="1" parent="qp9gyoNSPPs4CYKaGDF8-28">
          <mxGeometry x="30" width="150" height="30" as="geometry" />
        </mxCell>
        <mxCell id="qp9gyoNSPPs4CYKaGDF8-31" value="" style="shape=partialRectangle;collapsible=0;dropTarget=0;pointerEvents=0;fillColor=none;top=0;left=0;bottom=0;right=0;points=[[0,0.5],[1,0.5]];portConstraint=eastwest;" vertex="1" parent="qp9gyoNSPPs4CYKaGDF8-27">
          <mxGeometry y="60" width="180" height="60" as="geometry" />
        </mxCell>
        <mxCell id="qp9gyoNSPPs4CYKaGDF8-32" value="" style="shape=partialRectangle;connectable=0;fillColor=none;top=0;left=0;bottom=0;right=0;editable=1;overflow=hidden;" vertex="1" parent="qp9gyoNSPPs4CYKaGDF8-31">
          <mxGeometry width="30" height="60" as="geometry" />
        </mxCell>
        <mxCell id="qp9gyoNSPPs4CYKaGDF8-33" value="Username&#xa;password&#xa;&#xa;&#xa;" style="shape=partialRectangle;connectable=0;fillColor=none;top=0;left=0;bottom=0;right=0;align=left;spacingLeft=6;overflow=hidden;" vertex="1" parent="qp9gyoNSPPs4CYKaGDF8-31">
          <mxGeometry x="30" width="150" height="60" as="geometry" />
        </mxCell>
        <mxCell id="qp9gyoNSPPs4CYKaGDF8-34" value="" style="shape=partialRectangle;collapsible=0;dropTarget=0;pointerEvents=0;fillColor=none;top=0;left=0;bottom=0;right=0;points=[[0,0.5],[1,0.5]];portConstraint=eastwest;" vertex="1" parent="qp9gyoNSPPs4CYKaGDF8-27">
          <mxGeometry y="120" width="180" height="30" as="geometry" />
        </mxCell>
        <mxCell id="qp9gyoNSPPs4CYKaGDF8-35" value="" style="shape=partialRectangle;connectable=0;fillColor=none;top=0;left=0;bottom=0;right=0;editable=1;overflow=hidden;" vertex="1" parent="qp9gyoNSPPs4CYKaGDF8-34">
          <mxGeometry width="30" height="30" as="geometry" />
        </mxCell>
        <mxCell id="qp9gyoNSPPs4CYKaGDF8-36" value="" style="shape=partialRectangle;connectable=0;fillColor=none;top=0;left=0;bottom=0;right=0;align=left;spacingLeft=6;overflow=hidden;" vertex="1" parent="qp9gyoNSPPs4CYKaGDF8-34">
          <mxGeometry x="30" width="150" height="30" as="geometry" />
        </mxCell>
        <mxCell id="qp9gyoNSPPs4CYKaGDF8-37" value="" style="shape=partialRectangle;collapsible=0;dropTarget=0;pointerEvents=0;fillColor=none;top=0;left=0;bottom=0;right=0;points=[[0,0.5],[1,0.5]];portConstraint=eastwest;" vertex="1" parent="qp9gyoNSPPs4CYKaGDF8-27">
          <mxGeometry y="150" width="180" height="30" as="geometry" />
        </mxCell>
        <mxCell id="qp9gyoNSPPs4CYKaGDF8-38" value="" style="shape=partialRectangle;connectable=0;fillColor=none;top=0;left=0;bottom=0;right=0;editable=1;overflow=hidden;" vertex="1" parent="qp9gyoNSPPs4CYKaGDF8-37">
          <mxGeometry width="30" height="30" as="geometry" />
        </mxCell>
        <mxCell id="qp9gyoNSPPs4CYKaGDF8-39" value="" style="shape=partialRectangle;connectable=0;fillColor=none;top=0;left=0;bottom=0;right=0;align=left;spacingLeft=6;overflow=hidden;" vertex="1" parent="qp9gyoNSPPs4CYKaGDF8-37">
          <mxGeometry x="30" width="150" height="30" as="geometry" />
        </mxCell>
        <mxCell id="qp9gyoNSPPs4CYKaGDF8-40" value="Activities" style="shape=table;startSize=30;container=1;collapsible=1;childLayout=tableLayout;fixedRows=1;rowLines=0;fontStyle=1;align=center;resizeLast=1;" vertex="1" parent="1">
          <mxGeometry x="50" y="390" width="180" height="169.9999999999999" as="geometry" />
        </mxCell>
        <mxCell id="qp9gyoNSPPs4CYKaGDF8-41" value="" style="shape=partialRectangle;collapsible=0;dropTarget=0;pointerEvents=0;fillColor=none;top=0;left=0;bottom=1;right=0;points=[[0,0.5],[1,0.5]];portConstraint=eastwest;" vertex="1" parent="qp9gyoNSPPs4CYKaGDF8-40">
          <mxGeometry y="30" width="180" height="40" as="geometry" />
        </mxCell>
        <mxCell id="qp9gyoNSPPs4CYKaGDF8-42" value="PK&#xa;FK&#xa;" style="shape=partialRectangle;connectable=0;fillColor=none;top=0;left=0;bottom=0;right=0;fontStyle=1;overflow=hidden;" vertex="1" parent="qp9gyoNSPPs4CYKaGDF8-41">
          <mxGeometry width="30" height="40" as="geometry" />
        </mxCell>
        <mxCell id="qp9gyoNSPPs4CYKaGDF8-43" value="id&#xa;Task_id&#xa;" style="shape=partialRectangle;connectable=0;fillColor=none;top=0;left=0;bottom=0;right=0;align=left;spacingLeft=6;fontStyle=5;overflow=hidden;" vertex="1" parent="qp9gyoNSPPs4CYKaGDF8-41">
          <mxGeometry x="30" width="150" height="40" as="geometry" />
        </mxCell>
        <mxCell id="qp9gyoNSPPs4CYKaGDF8-44" value="" style="shape=partialRectangle;collapsible=0;dropTarget=0;pointerEvents=0;fillColor=none;top=0;left=0;bottom=0;right=0;points=[[0,0.5],[1,0.5]];portConstraint=eastwest;" vertex="1" parent="qp9gyoNSPPs4CYKaGDF8-40">
          <mxGeometry y="70" width="180" height="70" as="geometry" />
        </mxCell>
        <mxCell id="qp9gyoNSPPs4CYKaGDF8-45" value="" style="shape=partialRectangle;connectable=0;fillColor=none;top=0;left=0;bottom=0;right=0;editable=1;overflow=hidden;" vertex="1" parent="qp9gyoNSPPs4CYKaGDF8-44">
          <mxGeometry width="30" height="70" as="geometry" />
        </mxCell>
        <mxCell id="qp9gyoNSPPs4CYKaGDF8-46" value="&#xa;isCompleted&#xa;activityName&#xa;&#xa;&#xa;" style="shape=partialRectangle;connectable=0;fillColor=none;top=0;left=0;bottom=0;right=0;align=left;spacingLeft=6;overflow=hidden;" vertex="1" parent="qp9gyoNSPPs4CYKaGDF8-44">
          <mxGeometry x="30" width="150" height="70" as="geometry" />
        </mxCell>
        <mxCell id="qp9gyoNSPPs4CYKaGDF8-50" value="" style="shape=partialRectangle;collapsible=0;dropTarget=0;pointerEvents=0;fillColor=none;top=0;left=0;bottom=0;right=0;points=[[0,0.5],[1,0.5]];portConstraint=eastwest;" vertex="1" parent="qp9gyoNSPPs4CYKaGDF8-40">
          <mxGeometry y="140" width="180" height="30" as="geometry" />
        </mxCell>
        <mxCell id="qp9gyoNSPPs4CYKaGDF8-51" value="" style="shape=partialRectangle;connectable=0;fillColor=none;top=0;left=0;bottom=0;right=0;editable=1;overflow=hidden;" vertex="1" parent="qp9gyoNSPPs4CYKaGDF8-50">
          <mxGeometry width="30" height="30" as="geometry" />
        </mxCell>
        <mxCell id="qp9gyoNSPPs4CYKaGDF8-52" value="" style="shape=partialRectangle;connectable=0;fillColor=none;top=0;left=0;bottom=0;right=0;align=left;spacingLeft=6;overflow=hidden;" vertex="1" parent="qp9gyoNSPPs4CYKaGDF8-50">
          <mxGeometry x="30" width="150" height="30" as="geometry" />
        </mxCell>
        <mxCell id="qp9gyoNSPPs4CYKaGDF8-53" value="Clients" style="shape=table;startSize=30;container=1;collapsible=1;childLayout=tableLayout;fixedRows=1;rowLines=0;fontStyle=1;align=center;resizeLast=1;" vertex="1" parent="1">
          <mxGeometry x="400" y="70" width="180" height="200" as="geometry" />
        </mxCell>
        <mxCell id="qp9gyoNSPPs4CYKaGDF8-54" value="" style="shape=partialRectangle;collapsible=0;dropTarget=0;pointerEvents=0;fillColor=none;top=0;left=0;bottom=1;right=0;points=[[0,0.5],[1,0.5]];portConstraint=eastwest;" vertex="1" parent="qp9gyoNSPPs4CYKaGDF8-53">
          <mxGeometry y="30" width="180" height="20" as="geometry" />
        </mxCell>
        <mxCell id="qp9gyoNSPPs4CYKaGDF8-55" value="PK" style="shape=partialRectangle;connectable=0;fillColor=none;top=0;left=0;bottom=0;right=0;fontStyle=1;overflow=hidden;" vertex="1" parent="qp9gyoNSPPs4CYKaGDF8-54">
          <mxGeometry width="30" height="20" as="geometry" />
        </mxCell>
        <mxCell id="qp9gyoNSPPs4CYKaGDF8-56" value="id" style="shape=partialRectangle;connectable=0;fillColor=none;top=0;left=0;bottom=0;right=0;align=left;spacingLeft=6;fontStyle=5;overflow=hidden;" vertex="1" parent="qp9gyoNSPPs4CYKaGDF8-54">
          <mxGeometry x="30" width="150" height="20" as="geometry" />
        </mxCell>
        <mxCell id="qp9gyoNSPPs4CYKaGDF8-57" value="" style="shape=partialRectangle;collapsible=0;dropTarget=0;pointerEvents=0;fillColor=none;top=0;left=0;bottom=0;right=0;points=[[0,0.5],[1,0.5]];portConstraint=eastwest;" vertex="1" parent="qp9gyoNSPPs4CYKaGDF8-53">
          <mxGeometry y="50" width="180" height="100" as="geometry" />
        </mxCell>
        <mxCell id="qp9gyoNSPPs4CYKaGDF8-58" value="" style="shape=partialRectangle;connectable=0;fillColor=none;top=0;left=0;bottom=0;right=0;editable=1;overflow=hidden;" vertex="1" parent="qp9gyoNSPPs4CYKaGDF8-57">
          <mxGeometry width="30" height="100" as="geometry" />
        </mxCell>
        <mxCell id="qp9gyoNSPPs4CYKaGDF8-59" value="&#xa;map&#xa;address&#xa;telephone&#xa;planning&#xa;&#xa;" style="shape=partialRectangle;connectable=0;fillColor=none;top=0;left=0;bottom=0;right=0;align=left;spacingLeft=6;overflow=hidden;" vertex="1" parent="qp9gyoNSPPs4CYKaGDF8-57">
          <mxGeometry x="30" width="150" height="100" as="geometry" />
        </mxCell>
        <mxCell id="qp9gyoNSPPs4CYKaGDF8-60" value="" style="shape=partialRectangle;collapsible=0;dropTarget=0;pointerEvents=0;fillColor=none;top=0;left=0;bottom=0;right=0;points=[[0,0.5],[1,0.5]];portConstraint=eastwest;" vertex="1" parent="qp9gyoNSPPs4CYKaGDF8-53">
          <mxGeometry y="150" width="180" height="20" as="geometry" />
        </mxCell>
        <mxCell id="qp9gyoNSPPs4CYKaGDF8-61" value="" style="shape=partialRectangle;connectable=0;fillColor=none;top=0;left=0;bottom=0;right=0;editable=1;overflow=hidden;" vertex="1" parent="qp9gyoNSPPs4CYKaGDF8-60">
          <mxGeometry width="30" height="20" as="geometry" />
        </mxCell>
        <mxCell id="qp9gyoNSPPs4CYKaGDF8-62" value="" style="shape=partialRectangle;connectable=0;fillColor=none;top=0;left=0;bottom=0;right=0;align=left;spacingLeft=6;overflow=hidden;" vertex="1" parent="qp9gyoNSPPs4CYKaGDF8-60">
          <mxGeometry x="30" width="150" height="20" as="geometry" />
        </mxCell>
        <mxCell id="qp9gyoNSPPs4CYKaGDF8-63" value="" style="shape=partialRectangle;collapsible=0;dropTarget=0;pointerEvents=0;fillColor=none;top=0;left=0;bottom=0;right=0;points=[[0,0.5],[1,0.5]];portConstraint=eastwest;" vertex="1" parent="qp9gyoNSPPs4CYKaGDF8-53">
          <mxGeometry y="170" width="180" height="30" as="geometry" />
        </mxCell>
        <mxCell id="qp9gyoNSPPs4CYKaGDF8-64" value="" style="shape=partialRectangle;connectable=0;fillColor=none;top=0;left=0;bottom=0;right=0;editable=1;overflow=hidden;" vertex="1" parent="qp9gyoNSPPs4CYKaGDF8-63">
          <mxGeometry width="30" height="30" as="geometry" />
        </mxCell>
        <mxCell id="qp9gyoNSPPs4CYKaGDF8-65" value="" style="shape=partialRectangle;connectable=0;fillColor=none;top=0;left=0;bottom=0;right=0;align=left;spacingLeft=6;overflow=hidden;" vertex="1" parent="qp9gyoNSPPs4CYKaGDF8-63">
          <mxGeometry x="30" width="150" height="30" as="geometry" />
        </mxCell>
        <mxCell id="qp9gyoNSPPs4CYKaGDF8-66" value="Tasks" style="shape=table;startSize=40;container=1;collapsible=1;childLayout=tableLayout;fixedRows=1;rowLines=0;fontStyle=1;align=center;resizeLast=1;" vertex="1" parent="1">
          <mxGeometry x="400" y="380" width="180" height="200" as="geometry" />
        </mxCell>
        <mxCell id="qp9gyoNSPPs4CYKaGDF8-67" value="" style="shape=partialRectangle;collapsible=0;dropTarget=0;pointerEvents=0;fillColor=none;top=0;left=0;bottom=1;right=0;points=[[0,0.5],[1,0.5]];portConstraint=eastwest;" vertex="1" parent="qp9gyoNSPPs4CYKaGDF8-66">
          <mxGeometry y="40" width="180" height="60" as="geometry" />
        </mxCell>
        <mxCell id="qp9gyoNSPPs4CYKaGDF8-68" value="PK&#xa;FK&#xa;FK" style="shape=partialRectangle;connectable=0;fillColor=none;top=0;left=0;bottom=0;right=0;fontStyle=1;overflow=hidden;" vertex="1" parent="qp9gyoNSPPs4CYKaGDF8-67">
          <mxGeometry width="30" height="60" as="geometry" />
        </mxCell>
        <mxCell id="qp9gyoNSPPs4CYKaGDF8-69" value="id&#xa;Client_id&#xa;User_id" style="shape=partialRectangle;connectable=0;fillColor=none;top=0;left=0;bottom=0;right=0;align=left;spacingLeft=6;fontStyle=5;overflow=hidden;" vertex="1" parent="qp9gyoNSPPs4CYKaGDF8-67">
          <mxGeometry x="30" width="150" height="60" as="geometry" />
        </mxCell>
        <mxCell id="qp9gyoNSPPs4CYKaGDF8-70" value="" style="shape=partialRectangle;collapsible=0;dropTarget=0;pointerEvents=0;fillColor=none;top=0;left=0;bottom=0;right=0;points=[[0,0.5],[1,0.5]];portConstraint=eastwest;" vertex="1" parent="qp9gyoNSPPs4CYKaGDF8-66">
          <mxGeometry y="100" width="180" height="70" as="geometry" />
        </mxCell>
        <mxCell id="qp9gyoNSPPs4CYKaGDF8-71" value="" style="shape=partialRectangle;connectable=0;fillColor=none;top=0;left=0;bottom=0;right=0;editable=1;overflow=hidden;" vertex="1" parent="qp9gyoNSPPs4CYKaGDF8-70">
          <mxGeometry width="30" height="70" as="geometry" />
        </mxCell>
        <mxCell id="qp9gyoNSPPs4CYKaGDF8-72" value="startTask&#xa;stopTask&#xa;taskDate&#xa;taskName&#xa;isCompleted&#xa;&#xa;&#xa;&#xa;&#xa;&#xa;&#xa;" style="shape=partialRectangle;connectable=0;fillColor=none;top=0;left=0;bottom=0;right=0;align=left;spacingLeft=6;overflow=hidden;" vertex="1" parent="qp9gyoNSPPs4CYKaGDF8-70">
          <mxGeometry x="30" width="150" height="70" as="geometry" />
        </mxCell>
        <mxCell id="qp9gyoNSPPs4CYKaGDF8-76" value="" style="shape=partialRectangle;collapsible=0;dropTarget=0;pointerEvents=0;fillColor=none;top=0;left=0;bottom=0;right=0;points=[[0,0.5],[1,0.5]];portConstraint=eastwest;" vertex="1" parent="qp9gyoNSPPs4CYKaGDF8-66">
          <mxGeometry y="170" width="180" height="30" as="geometry" />
        </mxCell>
        <mxCell id="qp9gyoNSPPs4CYKaGDF8-77" value="" style="shape=partialRectangle;connectable=0;fillColor=none;top=0;left=0;bottom=0;right=0;editable=1;overflow=hidden;" vertex="1" parent="qp9gyoNSPPs4CYKaGDF8-76">
          <mxGeometry width="30" height="30" as="geometry" />
        </mxCell>
        <mxCell id="qp9gyoNSPPs4CYKaGDF8-78" value="" style="shape=partialRectangle;connectable=0;fillColor=none;top=0;left=0;bottom=0;right=0;align=left;spacingLeft=6;overflow=hidden;" vertex="1" parent="qp9gyoNSPPs4CYKaGDF8-76">
          <mxGeometry x="30" width="150" height="30" as="geometry" />
        </mxCell>
        <mxCell id="qp9gyoNSPPs4CYKaGDF8-86" value="" style="endArrow=none;html=1;exitX=1;exitY=0.5;exitDx=0;exitDy=0;entryX=0.25;entryY=0;entryDx=0;entryDy=0;" edge="1" parent="1" source="qp9gyoNSPPs4CYKaGDF8-27" target="qp9gyoNSPPs4CYKaGDF8-66">
          <mxGeometry width="50" height="50" relative="1" as="geometry">
            <mxPoint x="350" y="220" as="sourcePoint" />
            <mxPoint x="400" y="170" as="targetPoint" />
          </mxGeometry>
        </mxCell>
        <mxCell id="qp9gyoNSPPs4CYKaGDF8-96" value="1" style="edgeLabel;html=1;align=center;verticalAlign=middle;resizable=0;points=[];" vertex="1" connectable="0" parent="qp9gyoNSPPs4CYKaGDF8-86">
          <mxGeometry x="-0.9011" relative="1" as="geometry">
            <mxPoint x="-1" as="offset" />
          </mxGeometry>
        </mxCell>
        <mxCell id="qp9gyoNSPPs4CYKaGDF8-97" value="Many" style="edgeLabel;html=1;align=center;verticalAlign=middle;resizable=0;points=[];" vertex="1" connectable="0" parent="qp9gyoNSPPs4CYKaGDF8-86">
          <mxGeometry x="0.8804" y="-2" relative="1" as="geometry">
            <mxPoint as="offset" />
          </mxGeometry>
        </mxCell>
        <mxCell id="qp9gyoNSPPs4CYKaGDF8-90" value="" style="endArrow=none;html=1;exitX=0.5;exitY=0;exitDx=0;exitDy=0;entryX=0.456;entryY=1.078;entryDx=0;entryDy=0;entryPerimeter=0;" edge="1" parent="1" source="qp9gyoNSPPs4CYKaGDF8-66" target="qp9gyoNSPPs4CYKaGDF8-63">
          <mxGeometry width="50" height="50" relative="1" as="geometry">
            <mxPoint x="340" y="320" as="sourcePoint" />
            <mxPoint x="480" y="320" as="targetPoint" />
          </mxGeometry>
        </mxCell>
        <mxCell id="qp9gyoNSPPs4CYKaGDF8-91" value="1" style="edgeLabel;html=1;align=center;verticalAlign=middle;resizable=0;points=[];" vertex="1" connectable="0" parent="qp9gyoNSPPs4CYKaGDF8-90">
          <mxGeometry x="0.7713" y="2" relative="1" as="geometry">
            <mxPoint as="offset" />
          </mxGeometry>
        </mxCell>
        <mxCell id="qp9gyoNSPPs4CYKaGDF8-92" value="Many" style="edgeLabel;html=1;align=center;verticalAlign=middle;resizable=0;points=[];" vertex="1" connectable="0" parent="qp9gyoNSPPs4CYKaGDF8-90">
          <mxGeometry x="-0.7974" y="-1" relative="1" as="geometry">
            <mxPoint as="offset" />
          </mxGeometry>
        </mxCell>
        <mxCell id="qp9gyoNSPPs4CYKaGDF8-93" value="" style="endArrow=none;html=1;" edge="1" parent="1">
          <mxGeometry width="50" height="50" relative="1" as="geometry">
            <mxPoint x="230" y="470" as="sourcePoint" />
            <mxPoint x="400" y="480" as="targetPoint" />
          </mxGeometry>
        </mxCell>
        <mxCell id="qp9gyoNSPPs4CYKaGDF8-94" value="1" style="edgeLabel;html=1;align=center;verticalAlign=middle;resizable=0;points=[];" vertex="1" connectable="0" parent="qp9gyoNSPPs4CYKaGDF8-93">
          <mxGeometry x="0.8672" y="2" relative="1" as="geometry">
            <mxPoint as="offset" />
          </mxGeometry>
        </mxCell>
        <mxCell id="qp9gyoNSPPs4CYKaGDF8-95" value="many" style="edgeLabel;html=1;align=center;verticalAlign=middle;resizable=0;points=[];" vertex="1" connectable="0" parent="qp9gyoNSPPs4CYKaGDF8-93">
          <mxGeometry x="-0.8667" relative="1" as="geometry">
            <mxPoint as="offset" />
          </mxGeometry>
        </mxCell>
      </root>
    </mxGraphModel>
  </diagram>
</mxfile>
